#N canvas 335 195 859 679 12;
#X floatatom 115 238 5 0 0 0 - - -;
#X obj 115 528 *~;
#X obj 74 557 outlet~;
#X obj 337 169 env~ 1024;
#X obj 111 195 delwrite~ \$0-compressor 100;
#X obj 115 261 delread~ \$0-compressor;
#X floatatom 337 193 5 0 0 0 - - -;
#X obj 337 216 moses;
#X obj 337 248 bng 15 250 50 0 empty empty empty 17 7 0 10 -262144
-1 -1;
#X floatatom 369 246 5 0 0 0 - - -;
#X floatatom 428 166 5 0 0 0 - - -;
#X text 415 143 threshold;
#X floatatom 493 225 5 0 0 0 - - -;
#X text 465 242 compression factor;
#X floatatom 651 232 5 0 0 0 - - -;
#X text 647 208 reference;
#X obj 369 269 expr (($f1 - $f3) / $f2) - $f1 + $f3;
#X floatatom 369 303 5 0 0 0 - - -;
#X obj 369 338 expr 100 + $f1;
#X floatatom 369 362 5 0 0 0 - - -;
#X obj 369 385 dbtorms;
#X floatatom 369 419 5 0 0 0 - - -;
#X msg 331 387 1;
#X obj 182 479 line~;
#X text 415 304 value by which the signal must be changed;
#X text 452 378 conversion;
#X text 428 423 correction of input signal's rms;
#X obj 74 26 inlet~;
#X obj 182 40 tgl 25 0 empty empty empty 17 7 0 10 -159808 -1 -1 1
1;
#X obj 182 16 r CompressionOnOff;
#X obj 111 104 *~;
#X obj 74 104 *~;
#X floatatom 182 70 5 0 0 0 - - -;
#X obj 92 80 != 1;
#X obj 428 112 r CompressionThreshold;
#X obj 493 194 r CompressionRatio;
#X obj 651 181 r CompressorMakeUpGain;
#X msg 182 451 \$1 1;
#X msg 240 450 \$1 1;
#X obj 239 335 s compstatus;
#X connect 0 0 5 0;
#X connect 1 0 2 0;
#X connect 3 0 6 0;
#X connect 5 0 1 0;
#X connect 6 0 7 0;
#X connect 7 0 8 0;
#X connect 7 1 9 0;
#X connect 8 0 22 0;
#X connect 8 0 39 0;
#X connect 9 0 16 0;
#X connect 10 0 7 1;
#X connect 12 0 16 1;
#X connect 14 0 16 2;
#X connect 16 0 17 0;
#X connect 17 0 18 0;
#X connect 18 0 19 0;
#X connect 19 0 20 0;
#X connect 20 0 21 0;
#X connect 21 0 38 0;
#X connect 22 0 37 0;
#X connect 23 0 1 1;
#X connect 27 0 30 0;
#X connect 27 0 31 0;
#X connect 28 0 32 0;
#X connect 28 0 30 1;
#X connect 28 0 33 0;
#X connect 29 0 28 0;
#X connect 30 0 4 0;
#X connect 30 0 3 0;
#X connect 31 0 2 0;
#X connect 33 0 31 1;
#X connect 34 0 10 0;
#X connect 35 0 12 0;
#X connect 36 0 14 0;
#X connect 37 0 23 0;
#X connect 38 0 23 0;
