#N canvas 136 519 689 484 12;
#X obj 26 39 inlet~;
#X obj 27 405 outlet~;
#X obj 63 93 delwrite~ delayline1 4000;
#X obj 279 92 * 2;
#X obj 310 92 * 3;
#X obj 341 92 * 4;
#X obj 372 92 * 5;
#X obj 403 92 * 6;
#X text 26 12 Input Signal;
#X text 280 17 Input Time;
#X text 558 75 Input Decay;
#X obj 248 92 * 1;
#X obj 80 135 DelayInstance;
#X obj 80 185 *~;
#X obj 174 162 DelayInstance;
#X obj 174 212 *~;
#X obj 264 191 DelayInstance;
#X obj 264 241 *~;
#X obj 358 218 DelayInstance;
#X obj 358 268 *~;
#X obj 455 242 DelayInstance;
#X obj 455 292 *~;
#X obj 549 269 DelayInstance;
#X obj 549 319 *~;
#X obj 98 161 pow 2;
#X obj 192 188 pow 3;
#X obj 282 217 pow 4;
#X obj 376 244 pow 5;
#X obj 473 268 pow 6;
#X obj 567 295 pow 7;
#X obj 81 47 > 5;
#X obj 63 70 *~;
#X obj 260 38 r DelayTime;
#X obj 557 95 r DelayDecay;
#X obj 70 379 *~;
#X obj 113 409 tgl 15 0 empty empty empty 17 7 0 10 -262144 -1 -1 0
1;
#X obj 113 383 r DelayOnOff;
#X connect 0 0 1 0;
#X connect 0 0 31 0;
#X connect 3 0 14 0;
#X connect 4 0 16 0;
#X connect 5 0 18 0;
#X connect 6 0 20 0;
#X connect 7 0 22 0;
#X connect 11 0 12 0;
#X connect 12 0 13 0;
#X connect 13 0 34 0;
#X connect 14 0 15 0;
#X connect 15 0 34 0;
#X connect 16 0 17 0;
#X connect 17 0 34 0;
#X connect 18 0 19 0;
#X connect 19 0 34 0;
#X connect 20 0 21 0;
#X connect 21 0 34 0;
#X connect 22 0 23 0;
#X connect 23 0 34 0;
#X connect 24 0 13 1;
#X connect 25 0 15 1;
#X connect 26 0 17 1;
#X connect 27 0 19 1;
#X connect 28 0 21 1;
#X connect 29 0 23 1;
#X connect 30 0 31 1;
#X connect 31 0 2 0;
#X connect 32 0 7 0;
#X connect 32 0 6 0;
#X connect 32 0 5 0;
#X connect 32 0 4 0;
#X connect 32 0 3 0;
#X connect 32 0 11 0;
#X connect 32 0 30 0;
#X connect 33 0 29 0;
#X connect 33 0 28 0;
#X connect 33 0 27 0;
#X connect 33 0 26 0;
#X connect 33 0 25 0;
#X connect 33 0 24 0;
#X connect 34 0 1 0;
#X connect 35 0 34 1;
#X connect 36 0 35 0;
