#N canvas 176 195 450 300 12;
#X obj 15 17 inlet;
#X obj 15 121 outlet~;
#X obj 15 70 sig~;
#X floatatom 15 47 5 0 0 0 - - -;
#X obj 15 94 vd~ delayline1;
#X connect 0 0 3 0;
#X connect 2 0 4 0;
#X connect 3 0 2 0;
#X connect 4 0 1 0;
