#N canvas 379 180 932 835 12;
#X obj 275 68 inlet~;
#X obj 269 495 outlet~;
#X obj 321 134 *~;
#X obj 383 96 tgl 15 0 empty empty empty 17 7 0 10 -262144 -1 -1 0
1;
#X obj 134 180 vu 15 120 empty empty -1 -8 0 10 -66577 -1 1 0;
#X obj 133 111 +~;
#X obj 133 133 env~;
#X obj 133 155 - 100;
#X obj 614 344 s DisGain;
#X obj 493 174 Distort;
#X msg 516 151 0;
#X obj 614 184 vsl 15 128 0 20 0 1 empty empty empty 0 -9 0 10 -262144
-1 -1 7000 1;
#X floatatom 614 320 5 0 0 0 - - -;
#X obj 516 126 loadbang;
#X obj 496 257 Distort;
#X obj 519 209 loadbang;
#X obj 499 344 Distort;
#X obj 522 296 loadbang;
#X obj 756 568 Distort;
#X obj 779 520 loadbang;
#X obj 755 491 Distort;
#X obj 778 443 loadbang;
#X obj 754 419 Distort;
#X obj 777 371 loadbang;
#X obj 755 344 Distort;
#X obj 778 296 loadbang;
#X obj 495 436 Distort;
#X obj 518 388 loadbang;
#X msg 778 321 600;
#X msg 801 320 1000;
#X msg 777 396 1000;
#X msg 811 396 4000;
#X msg 778 468 4000;
#X msg 812 468 9000;
#X msg 779 545 9000;
#X msg 813 545 15000;
#X obj 756 641 Distort;
#X obj 779 593 loadbang;
#X msg 779 618 15000;
#X msg 820 618 20000;
#X obj 334 459 *~ 0.2;
#X msg 539 151 250;
#X msg 519 234 250;
#X msg 542 234 700;
#X msg 522 321 700;
#X msg 545 321 1400;
#X msg 518 413 1400;
#X msg 552 413 20000;
#X obj 461 467 *~ 0.5;
#X obj 465 401 *~ 5;
#X obj 464 368 *~ 0.5;
#X obj 480 316 *~ 5;
#X obj 383 69 r DistortionOnOff;
#X obj 614 157 r DistortionGain;
#X connect 0 0 2 0;
#X connect 0 0 1 0;
#X connect 2 0 9 0;
#X connect 2 0 49 0;
#X connect 2 0 51 0;
#X connect 2 0 14 0;
#X connect 3 0 2 1;
#X connect 5 0 6 0;
#X connect 6 0 7 0;
#X connect 7 0 4 0;
#X connect 9 0 40 0;
#X connect 10 0 9 1;
#X connect 11 0 12 0;
#X connect 12 0 8 0;
#X connect 13 0 10 0;
#X connect 13 0 41 0;
#X connect 14 0 40 0;
#X connect 15 0 42 0;
#X connect 15 0 43 0;
#X connect 16 0 50 0;
#X connect 17 0 44 0;
#X connect 17 0 45 0;
#X connect 19 0 34 0;
#X connect 19 0 35 0;
#X connect 21 0 32 0;
#X connect 21 0 33 0;
#X connect 23 0 30 0;
#X connect 23 0 31 0;
#X connect 25 0 28 0;
#X connect 25 0 29 0;
#X connect 26 0 48 0;
#X connect 27 0 46 0;
#X connect 27 0 47 0;
#X connect 28 0 24 1;
#X connect 29 0 24 2;
#X connect 30 0 22 1;
#X connect 31 0 22 2;
#X connect 32 0 20 1;
#X connect 33 0 20 2;
#X connect 34 0 18 1;
#X connect 35 0 18 2;
#X connect 37 0 38 0;
#X connect 37 0 39 0;
#X connect 38 0 36 1;
#X connect 39 0 36 2;
#X connect 40 0 1 0;
#X connect 41 0 9 2;
#X connect 42 0 14 1;
#X connect 43 0 14 2;
#X connect 44 0 16 1;
#X connect 45 0 16 2;
#X connect 46 0 26 1;
#X connect 47 0 26 2;
#X connect 48 0 40 0;
#X connect 49 0 26 0;
#X connect 50 0 40 0;
#X connect 51 0 16 0;
#X connect 52 0 3 0;
#X connect 53 0 11 0;
