#N canvas 126 251 682 440 12;
#X obj 83 59 inlet~;
#X obj 83 238 outlet~;
#X obj 83 161 lop~;
#X obj 83 185 hip~;
#X obj 195 61 inlet;
#X obj 285 64 inlet;
#X text 188 37 low end;
#X text 284 38 high end;
#X obj 101 86 r DisGain;
#X floatatom 101 110 5 0 0 0 - - -;
#X obj 83 132 *~;
#X obj 392 59 vsl 15 128 0 1 0 0 empty empty empty 0 -9 0 10 -262144
-1 -1 12700 1;
#X obj 392 196 -;
#X obj 410 174 * 2;
#X floatatom 392 220 5 0 0 0 - - -;
#X obj 83 213 clip~ -0.9 0.9;
#X obj 392 29 r DistortionCutoff;
#X connect 0 0 10 0;
#X connect 2 0 3 0;
#X connect 3 0 15 0;
#X connect 4 0 3 1;
#X connect 5 0 2 1;
#X connect 8 0 9 0;
#X connect 9 0 10 1;
#X connect 10 0 2 0;
#X connect 11 0 12 0;
#X connect 11 0 13 0;
#X connect 11 0 15 2;
#X connect 12 0 14 0;
#X connect 12 0 15 1;
#X connect 13 0 12 1;
#X connect 15 0 1 0;
#X connect 16 0 11 0;
