#N canvas 101 460 450 418 12;
#X obj 50 54 inlet~;
#X obj 50 295 outlet~;
#X obj 50 120 lop~ 250;
#X obj 161 145 hip~ 250;
#X obj 50 197 *~;
#X obj 161 197 *~;
#X obj 306 195 *~;
#X obj 68 172 r LowFilter;
#X obj 179 172 r MedFilter;
#X obj 324 170 r HighFilter;
#X obj 161 119 lop~ 750;
#X obj 306 118 hip~ 750;
#X connect 0 0 2 0;
#X connect 0 0 10 0;
#X connect 0 0 11 0;
#X connect 2 0 4 0;
#X connect 3 0 5 0;
#X connect 4 0 1 0;
#X connect 5 0 1 0;
#X connect 6 0 1 0;
#X connect 7 0 4 1;
#X connect 8 0 5 1;
#X connect 9 0 6 1;
#X connect 10 0 3 0;
#X connect 11 0 6 0;
