#N canvas 71 407 624 594 12;
#X obj 38 22 inlet~;
#X obj 69 266 outlet~;
#X floatatom 164 194 5 0 0 0 - - -;
#X obj 343 168 vsl 15 128 0 20000 0 0 empty empty empty 0 -9 0 10 -262144
-1 -1 0 1;
#X obj 385 172 vsl 15 128 0 100 0 0 empty empty empty 0 -9 0 10 -262144
-1 -1 0 1;
#X obj 102 225 rev3~ 100 90, f 21;
#X floatatom 320 328 5 0 0 0 - - -;
#X floatatom 390 331 5 0 0 0 - - -;
#X obj 164 166 r Reverb;
#X obj 144 33 tgl 15 0 empty empty empty 17 7 0 10 -262144 -1 -1 1
1;
#X obj 110 91 *~;
#X obj 78 91 *~;
#X obj 90 59 == 0;
#X obj 91 154 *~;
#X obj 309 39 vsl 15 128 0 1 0 0 empty empty empty 0 -9 0 10 -262144
-1 -1 12700 1;
#X obj 309 10 r ReverbDry;
#X obj 144 10 r ReverbOnOff;
#X connect 0 0 11 0;
#X connect 0 0 10 0;
#X connect 2 0 5 3;
#X connect 3 0 5 4;
#X connect 3 0 6 0;
#X connect 4 0 5 5;
#X connect 4 0 7 0;
#X connect 5 0 1 0;
#X connect 8 0 2 0;
#X connect 9 0 10 1;
#X connect 9 0 12 0;
#X connect 10 0 5 0;
#X connect 10 0 13 0;
#X connect 11 0 1 0;
#X connect 12 0 11 1;
#X connect 13 0 1 0;
#X connect 14 0 13 1;
#X connect 15 0 14 0;
#X connect 16 0 9 0;
