#N canvas 285 34 1512 952 12;
#X floatatom 76 109 5 0 0 0 - - -;
#X obj 79 91 hsl 128 15 0 2000 0 1 empty empty Delay_Time -2 -8 0 10
-204786 -1 -1 3373 1;
#X floatatom 83 203 5 0 0 0 - - -;
#X obj 86 184 hsl 128 15 0 0.7 0 1 empty empty Delay_Decay -2 -8 0
10 -204786 -1 -1 4762 1;
#X floatatom 233 67 5 0 0 0 - - -;
#X obj 219 43 ctlin 73 1;
#X floatatom 240 162 5 0 0 0 - - -;
#X obj 160 66 * 15.625;
#X obj 226 138 ctlin 75 1;
#X obj 138 160 * 0.00546875;
#X obj 85 399 hsl 128 15 50 100 0 1 empty empty Reverb -2 -8 0 10 -260097
-1 -1 8100 1;
#X floatatom 252 354 5 0 0 0 - - -;
#X obj 238 330 ctlin 72 1;
#X obj 157 351 / 2.54;
#X obj 157 375 + 50;
#X obj 76 132 s DelayTime;
#X obj 83 226 s DelayDecay;
#X floatatom 82 419 5 0 0 0 - - -;
#X obj 82 442 s Reverb;
#X obj 74 896 s CompressionThreshold;
#X floatatom 74 874 5 0 0 0 - - -;
#X obj 77 849 hsl 128 15 1 100 0 1 empty empty Compression_Threshold
-2 -8 0 10 -159808 -1 -1 7649 1;
#X obj 479 324 hsl 128 15 0 1 0 1 empty empty Tremolo_Depth -2 -8 0
10 -258113 -1 -1 12700 1;
#X obj 476 175 hsl 128 15 0 15 0 1 empty empty Tremolo_Rate -2 -8 0
10 -258113 -1 -1 2500 1;
#X floatatom 473 199 5 0 0 0 - - -;
#X floatatom 476 344 5 0 0 0 - - -;
#X obj 473 222 s TremRate;
#X obj 476 367 s TremDepth;
#X floatatom 632 152 5 0 0 0 - - -;
#X floatatom 650 283 5 0 0 0 - - -;
#X obj 618 128 ctlin 91 1;
#X obj 636 259 ctlin 92 1;
#X obj 550 151 / 8.4666;
#X obj 584 288 / 127;
#X msg 44 183 0.5;
#X msg 37 87 0;
#X msg 44 401 0;
#X msg 34 844 100;
#X msg 439 323 1;
#X floatatom 276 829 5 0 0 0 - - -;
#X obj 208 831 / 1.27;
#X obj 262 805 ctlin 95 1;
#X obj 74 723 tgl 25 0 empty empty empty 17 7 0 10 -159808 -1 -1 0
1;
#X obj 74 754 s CompressionOnOff;
#X floatatom 398 887 5 0 0 0 - - -;
#X obj 402 861 hsl 128 15 0 15 0 1 empty empty Compression_Ratio -2
-8 0 10 -159808 -1 -1 8000 1;
#X floatatom 403 733 5 0 0 0 - - -;
#X obj 406 706 hsl 128 15 1 100 0 1 empty empty Make_Up_Gain -2 -8
0 10 -159808 -1 -1 9367 1;
#X obj 403 755 s CompressorMakeUpGain;
#X msg 364 703 1;
#X obj 398 909 s CompressionRatio;
#X msg 358 855 0;
#X floatatom 225 702 5 0 0 0 - - -;
#X obj 211 678 ctlin 11 1;
#X obj 157 704 / 127;
#X floatatom 610 835 5 0 0 0 - - -;
#X obj 596 811 ctlin 94 1;
#X obj 542 837 / 8.4666;
#X floatatom 610 680 5 0 0 0 - - -;
#X obj 542 682 / 1.27;
#X obj 596 656 ctlin 93 1;
#X obj 666 738 r compstatus;
#X obj 666 765 bng 15 250 50 0 empty empty empty 17 7 0 10 -159808
-262144 -1;
#X obj 852 159 hsl 128 15 0 1.5 0 1 empty empty Low_Filter -2 -8 0
10 -257985 -1 -1 7500 1;
#X floatatom 849 179 5 0 0 0 - - -;
#X msg 813 157 1;
#X obj 849 202 s LowFilter;
#X obj 853 293 hsl 128 15 0 1.5 0 1 empty empty Med_Filter -2 -8 0
10 -257985 -1 -1 6400 1;
#X floatatom 850 313 5 0 0 0 - - -;
#X msg 814 291 1;
#X obj 850 336 s MedFilter;
#X obj 853 423 hsl 128 15 0 1.5 0 1 empty empty High_Filter -2 -8 0
10 -257985 -1 -1 9100 1;
#X floatatom 850 443 5 0 0 0 - - -;
#X msg 814 421 1;
#X obj 850 466 s HighFilter;
#X floatatom 1022 129 5 0 0 0 - - -;
#X obj 948 130 / 84.6666;
#X floatatom 1016 262 5 0 0 0 - - -;
#X obj 942 263 / 84.6666;
#X floatatom 1022 391 5 0 0 0 - - -;
#X obj 948 392 / 84.6666;
#X msg 431 171 0;
#X obj 1171 173 bng 15 250 50 0 empty empty empty 17 7 0 10 -262144
-1 -1;
#X obj 1171 122 tgl 15 1 empty empty empty 17 7 0 10 -262144 -1 -1
1 1;
#X obj 1171 144 metro 30000;
#X floatatom 1285 71 5 0 0 0 - - -;
#X floatatom 1336 71 5 0 0 0 - - -;
#X floatatom 1384 71 5 0 0 0 - - -;
#X obj 1286 44 ctlin;
#X floatatom 1177 69 5 0 0 0 - - -;
#X obj 1177 45 ctlin 73 1;
#X msg 1195 169 \; pd-SlidersMIDI.pd menusave;
#X floatatom 1153 589 5 0 0 0 - - -;
#X obj 1156 564 hsl 128 15 1 20 0 1 empty empty Distortion_Gain -2
-8 0 10 -4034 -1 -1 6700 1;
#X floatatom 1355 544 5 0 0 0 - - -;
#X msg 1153 441 0;
#X obj 1153 467 tgl 25 0 empty empty empty 17 7 0 10 -4034 -1 -1 0
1;
#X floatatom 1304 446 5 0 0 0 - - -;
#X obj 1153 415 loadbang;
#X floatatom 1153 699 5 0 0 0 - - -;
#X obj 1156 674 hsl 128 15 0 1 0 1 empty empty Distortion_Cutoff -2
-8 0 10 -4034 -1 -1 10800 1;
#X floatatom 1355 654 5 0 0 0 - - -;
#X obj 1153 498 s DistortionOnOff;
#X obj 1153 611 s DistortionGain;
#X obj 1153 721 s DistortionCutoff;
#X obj 1341 520 ctlin 74 1;
#X obj 1341 630 ctlin 71 1;
#X obj 1290 422 ctlin 9 1;
#X obj 1287 546 / 6.35;
#X obj 1236 448 / 127;
#X obj 1287 656 / 127;
#X obj 476 439 tgl 25 1 empty empty Trem_On_Off 17 7 0 10 -258113 -1
-1 0 1;
#X floatatom 627 418 5 0 0 0 - - -;
#X obj 559 420 / 127;
#X obj 613 394 ctlin 4 1;
#X obj 476 470 s TremOnOff;
#X obj 1008 105 ctlin 78 1;
#X obj 1008 367 ctlin 77 1;
#X obj 1002 238 ctlin 76 1;
#X obj 88 479 hsl 128 15 0 1 0 1 empty empty Dry_Sigal -2 -8 0 10 -260097
-1 -1 8000 1;
#X floatatom 254 452 5 0 0 0 - - -;
#X floatatom 85 499 5 0 0 0 - - -;
#X msg 47 481 0;
#X obj 159 449 / 127;
#X obj 240 428 ctlin 5 1;
#X obj 85 522 s ReverbDry;
#X obj 77 566 tgl 25 1 empty empty Reverb_On_Off 17 7 0 10 -260097
-1 -1 0 1;
#X floatatom 228 545 5 0 0 0 - - -;
#X obj 160 547 / 127;
#X obj 77 597 s ReverbOnOff;
#X obj 214 521 ctlin 3 1;
#X obj 83 271 tgl 25 1 empty empty Delay_On_Off 17 7 0 10 -204786 -1
-1 0 1;
#X floatatom 234 250 5 0 0 0 - - -;
#X obj 166 252 / 127;
#X obj 220 226 ctlin 0 1;
#X obj 83 302 s DelayOnOff;
#X floatatom 945 754 5 0 0 0 - - -;
#X text 971 680 Input Gain;
#X obj 945 620 vsl 15 128 0 2 0 1 empty empty empty 0 -9 0 10 -4160
-1 -1 7300 1;
#X floatatom 1037 600 5 0 0 0 - - -;
#X obj 981 571 ctlin 7 1;
#X obj 981 598 / 63.5;
#X obj 945 779 s InputGain;
#X obj 943 866 tgl 40 0 empty empty empty 17 7 0 10 -4160 -262144 -262144
0 1;
#X text 913 819 Toggle Sound;
#X obj 943 841 loadbang;
#X floatatom 1081 847 5 0 0 0 - - -;
#X obj 1025 818 ctlin 65 1;
#X obj 1025 845 / 127;
#X obj 943 913 s PatchOnOff;
#X connect 0 0 15 0;
#X connect 1 0 0 0;
#X connect 2 0 16 0;
#X connect 3 0 2 0;
#X connect 5 0 4 0;
#X connect 5 0 7 0;
#X connect 7 0 1 0;
#X connect 8 0 6 0;
#X connect 8 0 9 0;
#X connect 9 0 3 0;
#X connect 10 0 17 0;
#X connect 12 0 11 0;
#X connect 12 0 13 0;
#X connect 13 0 14 0;
#X connect 14 0 10 0;
#X connect 17 0 18 0;
#X connect 20 0 19 0;
#X connect 21 0 20 0;
#X connect 22 0 25 0;
#X connect 23 0 24 0;
#X connect 24 0 26 0;
#X connect 25 0 27 0;
#X connect 30 0 28 0;
#X connect 30 0 32 0;
#X connect 31 0 29 0;
#X connect 31 0 33 0;
#X connect 32 0 23 0;
#X connect 33 0 22 0;
#X connect 40 0 21 0;
#X connect 41 0 39 0;
#X connect 41 0 40 0;
#X connect 42 0 43 0;
#X connect 44 0 50 0;
#X connect 45 0 44 0;
#X connect 46 0 48 0;
#X connect 47 0 46 0;
#X connect 53 0 52 0;
#X connect 53 0 54 0;
#X connect 54 0 42 0;
#X connect 56 0 55 0;
#X connect 56 0 57 0;
#X connect 57 0 45 0;
#X connect 59 0 47 0;
#X connect 60 0 58 0;
#X connect 60 0 59 0;
#X connect 61 0 62 0;
#X connect 63 0 64 0;
#X connect 64 0 66 0;
#X connect 67 0 68 0;
#X connect 68 0 70 0;
#X connect 71 0 72 0;
#X connect 72 0 74 0;
#X connect 76 0 63 0;
#X connect 78 0 67 0;
#X connect 80 0 71 0;
#X connect 83 0 84 0;
#X connect 84 0 82 0;
#X connect 84 0 91 0;
#X connect 88 0 85 0;
#X connect 88 1 86 0;
#X connect 88 2 87 0;
#X connect 90 0 89 0;
#X connect 92 0 103 0;
#X connect 93 0 92 0;
#X connect 95 0 96 0;
#X connect 96 0 102 0;
#X connect 98 0 95 0;
#X connect 99 0 104 0;
#X connect 100 0 99 0;
#X connect 105 0 94 0;
#X connect 105 0 108 0;
#X connect 106 0 101 0;
#X connect 106 0 110 0;
#X connect 107 0 97 0;
#X connect 107 0 109 0;
#X connect 108 0 93 0;
#X connect 109 0 96 0;
#X connect 110 0 100 0;
#X connect 111 0 115 0;
#X connect 113 0 111 0;
#X connect 114 0 112 0;
#X connect 114 0 113 0;
#X connect 116 0 75 0;
#X connect 116 0 76 0;
#X connect 117 0 79 0;
#X connect 117 0 80 0;
#X connect 118 0 77 0;
#X connect 118 0 78 0;
#X connect 119 0 121 0;
#X connect 121 0 125 0;
#X connect 123 0 119 0;
#X connect 124 0 120 0;
#X connect 124 0 123 0;
#X connect 126 0 129 0;
#X connect 128 0 126 0;
#X connect 130 0 127 0;
#X connect 130 0 128 0;
#X connect 131 0 135 0;
#X connect 133 0 131 0;
#X connect 134 0 132 0;
#X connect 134 0 133 0;
#X connect 136 0 142 0;
#X connect 138 0 136 0;
#X connect 140 0 139 0;
#X connect 140 0 141 0;
#X connect 141 0 138 0;
#X connect 143 0 149 0;
#X connect 145 0 143 0;
#X connect 147 0 146 0;
#X connect 147 0 148 0;
#X connect 148 0 143 0;
