#N canvas 49 159 525 787 12;
#X obj 65 36 inlet~;
#X obj 65 489 outlet~;
#X obj 310 117 osc~;
#X obj 310 92 r TremRate;
#X obj 292 389 *~;
#X obj 310 149 +~ 1;
#X obj 310 186 *~ 0.5;
#X obj 239 257 *~ 0.5;
#X obj 310 237 *~;
#X obj 328 210 r TremDepth;
#X obj 310 350 +~;
#X obj 328 274 1;
#X obj 328 321 -;
#X obj 346 297 r TremDepth;
#X obj 179 80 tgl 15 0 empty empty empty 17 7 0 10 -262144 -1 -1 0
1;
#X obj 153 139 *~;
#X obj 110 139 *~;
#X floatatom 179 100 5 0 0 0 - - -;
#X floatatom 130 103 5 0 0 0 - - -;
#X obj 130 79 == 0;
#X obj 179 55 r TremOnOff;
#X connect 0 0 16 0;
#X connect 0 0 15 0;
#X connect 2 0 5 0;
#X connect 3 0 2 0;
#X connect 4 0 1 0;
#X connect 5 0 6 0;
#X connect 6 0 8 0;
#X connect 7 0 1 0;
#X connect 8 0 10 0;
#X connect 9 0 8 1;
#X connect 10 0 4 1;
#X connect 11 0 12 0;
#X connect 12 0 10 1;
#X connect 13 0 12 1;
#X connect 14 0 15 1;
#X connect 14 0 17 0;
#X connect 14 0 19 0;
#X connect 15 0 7 0;
#X connect 15 0 4 0;
#X connect 16 0 1 0;
#X connect 19 0 16 1;
#X connect 19 0 18 0;
#X connect 20 0 14 0;
