#N canvas 103 416 1038 515 12;
#X obj 22 19 inlet~;
#X text 592 19 if signal is below threshold:;
#X text 609 47 output = input;
#X text 590 88 If signal is above threshold:;
#X text 609 122 output = threshold + (input - threshold)/ratio;
#N canvas 835 565 450 477 RMSGainComputation 0;
#X obj 43 155 -~;
#X obj 43 229 /~;
#X obj 43 305 +~;
#X floatatom 61 130 5 0 0 0 - - -;
#X floatatom 61 204 5 0 0 0 - - -;
#X floatatom 61 280 5 0 0 0 - - -;
#X text 105 133 Threshold;
#X text 106 282 Threshold;
#X text 107 206 Ratio;
#X obj 43 29 inlet~;
#X obj 279 168 +~ 0;
#X obj 43 358 /~;
#X obj 43 382 outlet~;
#X obj 43 53 env~ 512;
#X obj 43 77 dbtorms~;
#X obj 61 106 r CompressionThreshold;
#X obj 61 255 r CompressionThreshold;
#X obj 61 179 r CompressionRatio;
#X obj 316 55 inlet;
#X obj 316 79 switch~;
#X connect 0 0 1 0;
#X connect 1 0 2 0;
#X connect 2 0 11 0;
#X connect 3 0 0 1;
#X connect 4 0 1 1;
#X connect 5 0 2 1;
#X connect 9 0 13 0;
#X connect 10 0 11 1;
#X connect 11 0 12 0;
#X connect 13 0 14 0;
#X connect 14 0 0 0;
#X connect 14 0 10 0;
#X connect 15 0 3 0;
#X connect 16 0 5 0;
#X connect 17 0 4 0;
#X connect 18 0 19 0;
#X restore 423 113 pd RMSGainComputation;
#N canvas 516 322 450 477 PeakGainComputation 1;
#X obj 43 129 -~;
#X obj 43 203 /~;
#X obj 43 278 +~;
#X floatatom 61 102 5 0 0 0 - - -;
#X floatatom 61 178 5 0 0 0 - - -;
#X floatatom 61 253 5 0 0 0 - - -;
#X text 105 105 Threshold;
#X text 106 255 Threshold;
#X text 107 180 Ratio;
#X obj 43 29 inlet~;
#X obj 43 331 /~;
#X obj 43 355 outlet~;
#X obj 43 53 abs~;
#X obj 61 78 r CompressionThreshold;
#X obj 61 227 r CompressionThreshold;
#X obj 61 153 r CompressionRatio;
#X obj 279 142 +~ 0;
#X obj 280 43 inlet;
#X obj 280 67 switch~;
#X connect 0 0 1 0;
#X connect 1 0 2 0;
#X connect 2 0 10 0;
#X connect 3 0 0 1;
#X connect 4 0 1 1;
#X connect 5 0 2 1;
#X connect 9 0 12 0;
#X connect 10 0 11 0;
#X connect 12 0 0 0;
#X connect 12 0 16 0;
#X connect 13 0 3 0;
#X connect 14 0 5 0;
#X connect 15 0 4 0;
#X connect 16 0 10 1;
#X connect 17 0 18 0;
#X restore 249 113 pd PeakGainComputation;
#X obj 249 190 clip~ 0 1;
#X floatatom 88 152 5 0 0 0 - - -;
#X text 134 154 delay time;
#X obj 249 244 lop~;
#X obj 274 219 r CompressorAttack;
#X obj 231 278 *~;
#X obj 231 384 *~;
#X obj 249 308 r CompressorMakeUpGain;
#X obj 249 333 pack f 5;
#X obj 249 357 line~;
#X obj 231 428 outlet~;
#N canvas 358 105 450 300 delwrite 0;
#X obj 56 53 inlet~;
#X obj 56 93 delwrite~ CompressorDelay 500;
#X obj 58 183 outlet~;
#X connect 0 0 1 0;
#X restore 22 92 pd delwrite;
#N canvas 281 108 450 300 delread 0;
#X obj 45 38 inlet~;
#X obj 125 39 inlet delaytime;
#X obj 125 98 delread~ CompressorDelay;
#X obj 125 138 outlet~;
#X connect 1 0 2 0;
#X connect 2 0 3 0;
#X restore 21 181 pd delread;
#X obj 61 367 vu 15 120 empty empty -1 -8 0 10 -66577 -1 1 0;
#X obj 60 298 +~;
#X obj 60 320 env~;
#X obj 60 342 - 100;
#X obj 364 398 env~;
#X floatatom 364 422 5 0 0 0 - - -;
#X obj 110 367 vu 15 120 empty empty -1 -8 0 10 -66577 -1 1 0;
#X obj 109 298 +~;
#X obj 109 320 env~;
#X obj 109 342 - 100;
#X obj 158 367 vu 15 120 empty empty -1 -8 0 10 -66577 -1 1 0;
#X obj 157 298 +~;
#X obj 157 320 env~;
#X obj 157 342 - 100;
#X obj 347 10 r RMSPeak;
#X obj 347 35 t f f;
#X obj 347 59 == 0;
#X floatatom 470 57 5 0 0 0 - - -;
#X floatatom 418 80 5 0 0 0 - - -;
#X connect 0 0 6 0;
#X connect 0 0 5 0;
#X connect 0 0 18 0;
#X connect 0 0 21 0;
#X connect 5 0 7 0;
#X connect 6 0 7 0;
#X connect 7 0 10 0;
#X connect 8 0 19 1;
#X connect 10 0 12 1;
#X connect 11 0 10 1;
#X connect 12 0 13 0;
#X connect 12 0 27 0;
#X connect 13 0 17 0;
#X connect 13 0 31 0;
#X connect 14 0 15 0;
#X connect 15 0 16 0;
#X connect 16 0 13 1;
#X connect 16 0 24 0;
#X connect 18 0 19 0;
#X connect 19 0 12 0;
#X connect 21 0 22 0;
#X connect 22 0 23 0;
#X connect 23 0 20 0;
#X connect 24 0 25 0;
#X connect 27 0 28 0;
#X connect 28 0 29 0;
#X connect 29 0 26 0;
#X connect 31 0 32 0;
#X connect 32 0 33 0;
#X connect 33 0 30 0;
#X connect 34 0 35 0;
#X connect 35 0 36 0;
#X connect 35 1 5 1;
#X connect 35 1 37 0;
#X connect 36 0 6 1;
#X connect 36 0 38 0;
