#N canvas 1048 278 755 748 12;
#X obj 36 23 inlet~;
#X obj 36 548 outlet~;
#X obj 144 37 tgl 25 0 empty empty empty 17 7 0 10 -159808 -1 -1 1
1;
#X obj 144 13 r CompressionOnOff;
#X obj 73 101 *~;
#X obj 36 101 *~;
#X floatatom 144 67 5 0 0 0 - - -;
#X obj 54 77 != 1;
#X obj 515 397 1;
#X obj 515 444 -;
#X obj 515 333 r Compression;
#X obj 533 420 r Compression;
#X obj 497 473 +;
#X obj 497 360 *;
#X obj 74 482 *~;
#X obj 233 444 line~;
#X obj 233 162 dbtorms;
#X obj 60 521 *~;
#X obj 102 506 r CompressorMakeUpGain;
#X obj 233 138 env~ 2048;
#X floatatom 74 314 5 0 0 0 - - -;
#X obj 281 102 moses;
#X floatatom 313 70 5 0 0 0 - - -;
#X obj 233 223 expr (($f1 * $f2) + (1 - $f2));
#X obj 440 187 r Compression;
#X floatatom 256 262 5 0 0 0 - - -;
#X floatatom 326 450 5 0 0 0 - - -;
#X obj 326 473 expr 100 + $f1;
#X floatatom 326 497 5 0 0 0 - - -;
#X floatatom 233 186 5 0 0 0 - - -;
#X obj 56 168 delwrite~ comp 100;
#X obj 74 342 delread~ comp;
#X connect 0 0 4 0;
#X connect 0 0 5 0;
#X connect 2 0 6 0;
#X connect 2 0 4 1;
#X connect 2 0 7 0;
#X connect 3 0 2 0;
#X connect 4 0 19 0;
#X connect 4 0 30 0;
#X connect 5 0 1 0;
#X connect 7 0 5 1;
#X connect 8 0 9 0;
#X connect 9 0 12 1;
#X connect 10 0 13 1;
#X connect 11 0 9 1;
#X connect 13 0 12 0;
#X connect 14 0 17 0;
#X connect 15 0 14 1;
#X connect 16 0 23 0;
#X connect 16 0 29 0;
#X connect 17 0 1 0;
#X connect 18 0 17 1;
#X connect 19 0 16 0;
#X connect 20 0 31 0;
#X connect 22 0 21 1;
#X connect 23 0 25 0;
#X connect 23 0 15 0;
#X connect 24 0 23 1;
#X connect 26 0 27 0;
#X connect 27 0 28 0;
#X connect 31 0 14 0;
