#N canvas 181 107 527 875 12;
#X obj 31 14 inlet~;
#X obj 31 680 outlet~;
#X obj 158 72 r CompressionThreshold;
#X obj 329 667 r CompressorAttack;
#X obj 96 615 r CompressorMakeUpGain;
#X obj 81 76 env~;
#X floatatom 81 101 5 0 0 0 - - -;
#X obj 81 153 <=;
#X obj 31 337 *~;
#X floatatom 81 178 5 0 0 0 - - -;
#X floatatom 158 98 5 0 0 0 - - -;
#X obj 78 337 *~;
#X obj 322 696 tabread InputMonitor;
#X obj 327 722 tabread~ InputMonitor;
#X obj 78 458 *~;
#X obj 171 337 r CompressionThreshold;
#X floatatom 153 388 5 0 0 0 - - -;
#X obj 153 364 /;
#X obj 136 438 /;
#X floatatom 136 462 5 0 0 0 - - -;
#X msg 106 409 1;
#X obj 78 639 *~;
#X obj 115 566 env~;
#X floatatom 115 592 5 0 0 0 - - -;
#X obj 78 536 *~;
#X obj 106 510 /;
#X obj 125 483 r CompressionRatio;
#X obj 371 160 line;
#X msg 371 101 1 1000;
#X floatatom 371 184 5 0 0 0 - - -;
#X obj 44 281 line;
#X obj 124 280 line;
#X floatatom 124 304 5 0 0 0 - - -;
#X floatatom 61 304 5 0 0 0 - - -;
#X obj 81 201 route 1;
#X floatatom 152 179 5 0 0 0 - - -;
#X obj 152 155 >;
#X obj 151 201 route 1;
#X obj -2 383 delwrite~ compressor;
#X obj 31 511 delread~ compressor 10;
#X msg 44 256 1 10;
#X msg 85 256 0 10;
#X msg 129 255 1 10;
#X msg 169 255 0 10;
#X connect 0 0 5 0;
#X connect 0 0 8 0;
#X connect 0 0 11 0;
#X connect 2 0 10 0;
#X connect 4 0 21 1;
#X connect 5 0 6 0;
#X connect 6 0 7 0;
#X connect 6 0 17 0;
#X connect 6 0 36 0;
#X connect 7 0 9 0;
#X connect 8 0 38 0;
#X connect 9 0 34 0;
#X connect 10 0 7 1;
#X connect 10 0 36 1;
#X connect 11 0 14 0;
#X connect 14 0 24 0;
#X connect 15 0 17 1;
#X connect 16 0 18 1;
#X connect 16 0 20 0;
#X connect 17 0 16 0;
#X connect 18 0 14 1;
#X connect 18 0 19 0;
#X connect 20 0 18 0;
#X connect 20 0 25 0;
#X connect 21 0 1 0;
#X connect 22 0 23 0;
#X connect 24 0 21 0;
#X connect 24 0 22 0;
#X connect 25 0 24 1;
#X connect 26 0 25 1;
#X connect 27 0 29 0;
#X connect 28 0 27 0;
#X connect 30 0 8 1;
#X connect 30 0 33 0;
#X connect 31 0 11 1;
#X connect 31 0 32 0;
#X connect 34 0 40 0;
#X connect 34 1 41 0;
#X connect 35 0 37 0;
#X connect 36 0 35 0;
#X connect 37 0 42 0;
#X connect 37 1 43 0;
#X connect 39 0 1 0;
#X connect 40 0 30 0;
#X connect 41 0 30 0;
#X connect 42 0 31 0;
#X connect 43 0 31 0;
