#N canvas 90 387 795 552 12;
#X obj 22 105 inlet~;
#X obj 22 364 outlet~;
#X obj 710 81 vsl 15 128 0.5 50 0 1 empty empty empty 0 -9 0 10 -262144
-1 -1 4900 1;
#X floatatom 709 246 5 0 0 0 - - -;
#X obj 140 111 tgl 15 0 empty empty empty 17 7 0 10 -262144 -1 -1 1
1;
#X obj 73 136 *~;
#X floatatom 140 131 5 0 0 0 - - -;
#X obj 57 182 lop~ 250;
#X obj 291 244 hip~ 250;
#X obj 291 218 lop~ 750;
#X obj 569 253 hip~ 750;
#X obj 569 281 expr~ $f2 * tan($v1 / $f2);
#X obj 291 277 expr~ $f2 * tan($v1 / $f2);
#X obj 75 247 expr~ $f2 * tan($v1 / $f2);
#X connect 0 0 1 0;
#X connect 0 0 5 0;
#X connect 2 0 3 0;
#X connect 2 0 11 1;
#X connect 2 0 12 1;
#X connect 2 0 13 1;
#X connect 4 0 5 1;
#X connect 4 0 6 0;
#X connect 5 0 7 0;
#X connect 5 0 9 0;
#X connect 5 0 10 0;
#X connect 7 0 13 0;
#X connect 8 0 12 0;
#X connect 9 0 8 0;
#X connect 10 0 11 0;
#X connect 11 0 1 0;
#X connect 12 0 1 0;
#X connect 13 0 1 0;
